<?xml version="1.0" encoding="iso-8859-1"?>
<!-- Uploaded to: SVG Repo, www.svgrepo.com, Generator: SVG Repo Mixer Tools -->
<svg version="1.1" id="Layer_1" xmlns="http://www.w3.org/2000/svg" xmlns:xlink="http://www.w3.org/1999/xlink" 
	 viewBox="0 0 512 512" xml:space="preserve">
<g>
	<polygon style="fill:#C2D280;" points="115.592,16.613 115.592,158.23 28.443,136.443 28.443,38.4 	"/>
	<polygon style="fill:#C2D280;" points="483.72,38.4 483.72,136.443 396.571,158.23 396.571,16.613 	"/>
</g>
<polygon style="fill:#804E30;" points="418.358,71.081 418.358,22.06 93.805,22.06 93.805,71.081 256.076,92.868 "/>
<rect x="93.805" y="71.081" style="fill:#A0613C;" width="324.553" height="103.489"/>
<g>
	<polygon style="fill:#58AB5B;" points="483.72,136.443 483.72,501.379 28.443,501.379 28.443,136.443 93.805,136.443 
		418.358,136.443 	"/>
	<path style="fill:#58AB5B;" d="M451.039,7.898H61.124c-17.974,0-32.681,14.706-32.681,32.681H483.72
		C483.72,22.604,469.014,7.898,451.039,7.898z"/>
</g>
<g>
	<polygon style="fill:#C2D280;" points="169.363,185.802 202.044,235.212 169.363,278.811 136.846,294.051 104.492,243.952 	"/>
	<polygon style="fill:#C2D280;" points="407.672,245.041 375.318,295.141 342.8,279.901 310.119,236.301 342.8,186.891 	"/>
</g>
<path style="fill:#FFFFFF;" d="M342.8,283.22v170.674H169.363V283.22v-95.417l44.522-10.863c0,0,12.408,22.407,42.191,22.407
	c29.794,0,42.202-22.407,42.202-22.407l44.522,10.863V283.22z"/>
<g>
	<path style="fill:#1D2328;" d="M494.53,495.66h-2.723V40.851C491.807,18.325,473.481,0,450.955,0H61.045
		C38.519,0,20.194,18.325,20.194,40.851V495.66H17.47c-4.513,0-8.17,3.658-8.17,8.17s3.657,8.17,8.17,8.17h477.06
		c4.513,0,8.17-3.658,8.17-8.17S499.042,495.66,494.53,495.66z M61.045,16.34h389.911c10.651,0,19.733,6.831,23.105,16.34H37.939
		C41.312,23.172,50.394,16.34,61.045,16.34z M36.534,49.021h438.932V495.66H36.534V49.021z"/>
	<path style="fill:#1D2328;" d="M413.043,238.144l-64.873-58.156c-1.013-0.909-2.239-1.55-3.563-1.865l-44.521-10.592
		c-3.531-0.838-7.169,0.699-8.964,3.859c-0.427,0.726-10.742,17.764-35.123,17.764c-24.382,0-34.698-17.039-35.094-17.71
		c-1.795-3.159-5.461-4.754-8.995-3.913l-44.52,10.592c-1.325,0.315-2.55,0.956-3.563,1.865l-64.874,58.156
		c-2.992,2.682-3.591,7.141-1.41,10.517l32.354,50.093c1.548,2.398,4.167,3.739,6.867,3.739c1.166,0,2.346-0.249,3.463-0.773
		l20.882-9.786v164.415c0,4.512,3.657,8.17,8.17,8.17h173.436c4.513,0,8.17-3.658,8.17-8.17V291.935l20.882,9.786
		c3.699,1.733,8.114,0.467,10.329-2.966l32.353-50.094C416.634,245.285,416.036,240.826,413.043,238.144z M372.245,283.896
		l-21.357-10.008v-43.926c0-4.512-3.657-8.17-8.17-8.17c-4.513,0-8.17,3.658-8.17,8.17V448.18H177.452V229.962
		c0-4.512-3.657-8.17-8.17-8.17s-8.17,3.658-8.17,8.17v43.926l-21.356,10.008l-24.699-38.242l58.134-52.115l37.204-8.851
		c6.263,7.593,20.736,20.806,45.605,20.806s39.341-13.213,45.605-20.806l37.203,8.851l58.134,52.115L372.245,283.896z"/>
	<path style="fill:#1D2328;" d="M450.955,119.83h-24.511V73.532c0-4.512-3.657-8.17-8.17-8.17s-8.17,3.658-8.17,8.17v46.298H101.896
		V73.532c0-4.512-3.657-8.17-8.17-8.17c-4.513,0-8.17,3.658-8.17,8.17v46.298H61.045c-4.513,0-8.17,3.658-8.17,8.17
		c0,4.512,3.657,8.17,8.17,8.17h389.911c4.513,0,8.17-3.658,8.17-8.17C459.126,123.488,455.468,119.83,450.955,119.83z"/>
</g>
</svg>