<?xml version="1.0" encoding="iso-8859-1"?>
<!-- Uploaded to: SVG Repo, www.svgrepo.com, Generator: SVG Repo Mixer Tools -->
<svg height="800px" width="800px" version="1.1" id="Layer_1" xmlns="http://www.w3.org/2000/svg" xmlns:xlink="http://www.w3.org/1999/xlink" 
	 viewBox="0 0 512.002 512.002" xml:space="preserve">
<polygon style="fill:#66BF00;" points="179.028,384.279 179.028,469.792 84.963,469.792 8.001,384.279 "/>
<polygon style="fill:#BAB48D;" points="161.925,358.625 125.203,268.305 28.622,281.663 55.507,297.185 8.001,384.279 
	110.617,384.279 135.25,343.224 "/>
<polygon style="fill:#A39B65;" points="8.001,384.279 110.617,384.279 122.689,364.159 19.299,363.567 "/>
<polygon style="fill:#66BF00;" points="199.318,135.144 136.271,77.372 199.82,8.02 314.862,9.05 "/>
<polygon style="fill:#BAB48D;" points="229.786,139.867 321.186,173.812 376.586,93.58 346.98,102.915 314.862,9.05 245.536,84.706 
	259.162,130.604 "/>
<polygon style="fill:#A39B65;" points="314.862,9.05 245.536,84.706 252.881,109.45 323.64,34.705 "/>
<polygon style="fill:#66BF00;" points="382.889,322.436 456.946,279.679 503.979,361.141 468.403,470.549 "/>
<polygon style="fill:#BAB48D;" points="369.223,350.074 309.364,427.036 369.223,503.998 369.223,472.955 468.403,470.549 
	417.095,381.682 369.223,380.876 "/>
<polygon style="fill:#A39B65;" points="468.403,470.549 417.095,381.682 391.864,381.256 442.348,471.181 "/>
<path d="M340.969,281.663c0-46.857-38.122-84.979-84.979-84.979s-84.979,38.122-84.979,84.979s38.122,84.979,84.979,84.979
	S340.969,328.521,340.969,281.663z M196.473,246.923h20.728c-1.734,8.229-2.854,17.201-3.258,26.723h-26.419
	C188.649,263.993,191.773,254.945,196.473,246.923z M298.034,273.646c-0.404-9.522-1.523-18.494-3.258-26.723h20.728
	c4.701,8.022,7.824,17.07,8.948,26.723H298.034z M229.986,273.646c0.463-9.995,1.775-18.952,3.645-26.723h44.716
	c1.87,7.771,3.182,16.728,3.645,26.723H229.986z M281.992,289.68c-0.463,9.995-1.775,18.952-3.645,26.723h-44.716
	c-1.87-7.771-3.182-16.728-3.645-26.723H281.992z M290.296,230.889c-1.513-4.218-3.22-8.115-5.096-11.659
	c6.384,2.999,12.237,6.942,17.374,11.659H290.296z M273.056,230.889h-34.133c5.16-11.713,11.644-18.172,17.066-18.172
	C261.412,212.718,267.896,219.176,273.056,230.889z M221.684,230.889h-12.279c5.137-4.717,10.991-8.659,17.374-11.659
	C224.902,222.775,223.196,226.671,221.684,230.889z M213.945,289.68c0.404,9.522,1.523,18.494,3.258,26.723h-20.728
	c-4.701-8.022-7.824-17.07-8.948-26.723H213.945z M221.684,332.436c1.513,4.218,3.22,8.115,5.096,11.659
	c-6.384-2.999-12.237-6.942-17.374-11.659H221.684z M238.923,332.436h34.133c-5.16,11.713-11.644,18.172-17.066,18.172
	C250.567,350.608,244.083,344.151,238.923,332.436z M290.296,332.436h12.279c-5.137,4.717-10.991,8.659-17.374,11.659
	C287.076,340.552,288.783,336.656,290.296,332.436z M294.776,316.403c1.734-8.229,2.854-17.201,3.258-26.723h26.419
	c-1.123,9.653-4.248,18.701-8.948,26.723H294.776z"/>
<path d="M179.028,376.262h-54.252l13.292-22.153l19.848,11.459c2.915,1.682,6.734,1.307,9.272-0.9
	c2.539-2.208,3.431-5.943,2.163-9.062l-36.722-90.321c-1.381-3.398-4.891-5.422-8.526-4.921l-96.58,13.359
	c-3.247,0.449-5.958,2.918-6.706,6.109c-0.798,3.402,0.769,7.028,3.797,8.776l20.108,11.609l-6.445,11.815
	c-2.121,3.887-0.688,8.757,3.199,10.876c3.889,2.123,8.757,0.688,10.876-3.199l10.191-18.684c2.084-3.82,0.74-8.606-3.029-10.781
	l-6.65-3.84l67.26-9.303L145.698,340l-6.439-3.718c-3.789-2.187-8.632-0.933-10.883,2.818l-22.298,37.163H21.505l19.187-35.177
	c2.12-3.888,0.687-8.757-3.199-10.877c-3.889-2.12-8.757-0.687-10.877,3.199L0.962,380.44c-1.6,2.936-1.159,6.716,1.079,9.201
	l76.962,85.513c1.52,1.69,3.687,2.654,5.959,2.654h94.065c4.427,0,8.017-3.589,8.017-8.017v-85.513
	C187.044,379.852,183.455,376.262,179.028,376.262z M171.011,461.776H88.533l-62.532-69.48h145.009V461.776z"/>
<path d="M193.902,141.055c3.221,2.95,8.378,2.723,11.327-0.495l36.651-39.998l7.353,24.766l-21.857,6.891
	c-3.179,1.003-5.451,3.966-5.597,7.294c-0.151,3.438,1.989,6.668,5.216,7.867l91.4,33.946c3.399,1.262,7.328,0.022,9.388-2.96
	l55.4-80.232c1.991-2.885,1.848-6.838-0.343-9.571c-2.046-2.553-5.543-3.615-8.666-2.631l-22.144,6.982L322.448,6.454
	c-1.082-3.157-4.158-5.384-7.495-5.42l-33.219-0.374c-4.389-0.056-8.056,3.499-8.107,7.926c-0.05,4.427,3.499,8.056,7.926,8.107
	l15.274,0.172l-98.004,106.953l-51.226-46.94l55.721-60.809l44.048,0.394c0.025,0,0.049,0,0.074,0c4.393,0,7.975-3.542,8.015-7.945
	c0.04-4.427-3.518-8.049-7.944-8.089l-47.618-0.426c-2.292-0.051-4.448,0.925-5.983,2.601L130.36,71.954
	c-2.95,3.22-2.723,8.378,0.495,11.327L193.902,141.055z M349.391,110.561l7.322-2.309l-38.58,55.873l-63.652-23.64l7.092-2.236
	c4.172-1.316,6.52-5.734,5.275-9.928l-12.335-41.546l57.136-62.353l27.746,81.088C340.804,109.628,345.241,111.872,349.391,110.561z
	"/>
<path d="M510.921,357.133l-16.264-28.17c-2.214-3.834-7.118-5.149-10.951-2.934c-3.834,2.214-5.148,7.117-2.934,10.951
	l14.478,25.078l-28.906,88.893l-72.505-125.582l60.172-34.74l11.947,20.693c2.215,3.835,7.118,5.148,10.951,2.934
	c3.834-2.214,5.148-7.117,2.934-10.951l-15.956-27.636c-2.214-3.834-7.118-5.149-10.951-2.934l-74.057,42.757
	c-3.778,2.182-5.119,7.168-2.934,10.951l27.126,46.983l-25.832-0.434v-22.919c0-3.278-2.074-6.301-5.132-7.48
	c-3.26-1.256-7.067-0.201-9.213,2.558l-59.859,76.962c-2.252,2.895-2.252,6.948,0,9.844l59.859,76.962
	c2.213,2.847,6.175,3.867,9.49,2.446c2.915-1.251,4.855-4.195,4.855-7.367V480.78l91.356-2.217c3.345-0.077,6.395-2.358,7.43-5.535
	l35.576-109.408C512.305,361.46,512.057,359.102,510.921,357.133z M369.029,464.941c-4.351,0.106-7.822,3.663-7.822,8.015v7.677
	l-41.687-53.597l41.687-53.597v7.436c0,4.375,3.507,7.942,7.882,8.016l43.333,0.729l42.286,73.241L369.029,464.941z"/>
</svg>