<svg width="99" height="80" viewBox="0 0 99 80" fill="none" xmlns="http://www.w3.org/2000/svg">
<path fill-rule="evenodd" clip-rule="evenodd" d="M47.5674 20.906C43.8036 12.9153 29.2915 -3.36983 14.5612 0.61912C-3.67929 5.55863 -13.3543 32.8915 38.8875 77.8884C42.0642 80.6246 46.9312 78.3485 46.9312 74.156V51.5969C46.9312 48.8355 44.6926 46.5969 41.9312 46.5969H37.7603C35.5148 46.5969 33.6945 48.4173 33.6945 50.6628V51.6194C33.6945 53.3366 35.0865 54.7286 36.8037 54.7286C38.5208 54.7286 39.9128 56.1206 39.9128 57.8378V58.0957C39.9128 61.0932 36.3278 62.5675 34.2998 60.3602C21.8612 46.8216 6.85043 26.3994 14.5612 15.027C19.4252 7.85322 30.9413 16.0007 39.4974 25.2659C42.1294 28.116 47.5684 26.582 47.8713 22.7143C47.92 22.0929 47.833 21.4699 47.5674 20.906ZM59.141 78.2532C82.2677 58.6349 112.232 24.3067 90.8995 5.36487C83.7992 0.0332738 62.3929 -6.05039 51.7061 18.0551C51.4375 18.6608 51.3023 19.3337 51.3023 19.9962V74.485C51.3023 78.6188 55.9887 80.9273 59.141 78.2532ZM60.6744 24.2202L60.6743 59.738C60.6664 59.9006 60.6545 60.064 60.6429 60.2239C60.5273 61.8183 60.4366 63.0694 64.4721 59.738C99.3908 30.9117 83.3328 -8.10248 61.6134 21.3404C61.0071 22.1623 60.6744 23.1989 60.6744 24.2202Z" fill="#ffffff"/>
</svg>
